HIERARCHY
ROOT Hips
{
	OFFSET 0.000000 0.000000 0.000000
	CHANNELS 6 Xposition Yposition Zposition Xrotation Yrotation Zrotation
	JOINT LeftUpLeg_virtual
	{
		OFFSET 0.000000 0.000000 0.000000
		CHANNELS 3 Xrotation Yrotation Zrotation
		JOINT LeftUpLeg
		{
			OFFSET 15.427100 -6.655098 0.678600
			CHANNELS 3 Xrotation Yrotation Zrotation
			JOINT LeftLeg
			{
				OFFSET 4.081073 -39.591068 13.024000
				CHANNELS 3 Xrotation Yrotation Zrotation
				JOINT LeftFoot
				{
					OFFSET -4.081074 -37.707932 -15.979700
					CHANNELS 3 Xrotation Yrotation Zrotation
					JOINT LeftToeBase
					{
						OFFSET 5.346399 -15.068900 20.645000
						CHANNELS 3 Xrotation Yrotation Zrotation
						JOINT LeftToe_End
						{
							OFFSET 2.754700 0.931300 11.300900
							CHANNELS 3 Xrotation Yrotation Zrotation
							End Site
							{
								OFFSET 0 0 0
							}
						}
					}
				}
			}
		}
	}
	JOINT RightUpLeg_virtual
	{
		OFFSET 0.000000 0.000000 0.000000
		CHANNELS 3 Xrotation Yrotation Zrotation
		JOINT RightUpLeg
		{
			OFFSET -15.569500 -6.655098 0.678600
			CHANNELS 3 Xrotation Yrotation Zrotation
			JOINT RightLeg
			{
				OFFSET -4.081825 -39.591045 13.023800
				CHANNELS 3 Xrotation Yrotation Zrotation
				JOINT RightFoot
				{
					OFFSET 4.081824 -37.707954 -15.979600
					CHANNELS 3 Xrotation Yrotation Zrotation
					JOINT RightToeBase
					{
						OFFSET -5.346400 -15.068900 20.645000
						CHANNELS 3 Xrotation Yrotation Zrotation
						JOINT RightToe_End
						{
							OFFSET -2.754700 0.931300 11.300900
							CHANNELS 3 Xrotation Yrotation Zrotation
							End Site
							{
								OFFSET 0 0 0
							}
						}
					}
				}
			}
		}
	}
	JOINT Spine_virtual
	{
		OFFSET 0.000000 0.000000 0.000000
		CHANNELS 3 Xrotation Yrotation Zrotation
		JOINT Spine
		{
			OFFSET -0.279200 12.230698 -2.892100
			CHANNELS 3 Xrotation Yrotation Zrotation
			JOINT Spine1
			{
				OFFSET -0.232667 10.192268 -1.242267
				CHANNELS 3 Xrotation Yrotation Zrotation
				JOINT Spine1_split
				{
					OFFSET -0.232667 10.192268 -1.242267
					CHANNELS 3 Xrotation Yrotation Zrotation
					JOINT Spine2
					{
						OFFSET -0.232667 10.192268 -1.242267
						CHANNELS 3 Xrotation Yrotation Zrotation
						JOINT Neck_virtual
						{
							OFFSET 0.000000 0.000000 0.000000
							CHANNELS 3 Xrotation Yrotation Zrotation
							JOINT Neck
							{
								OFFSET -0.418800 17.814194 8.416900
								CHANNELS 3 Xrotation Yrotation Zrotation
								JOINT Head
								{
									OFFSET 0.000000 7.031097 3.806800
									CHANNELS 3 Xrotation Yrotation Zrotation
									JOINT HeadTop_End
									{
										OFFSET 0.000000 24.646606 12.978600
										CHANNELS 3 Xrotation Yrotation Zrotation
										End Site
										{
											OFFSET 0 0 0
										}
									}
								}
							}
						}
						JOINT LeftShoulder_virtual
						{
							OFFSET 0.000000 0.000000 0.000000
							CHANNELS 3 Xrotation Yrotation Zrotation
							JOINT LeftShoulder
							{
								OFFSET 8.476499 7.247704 -3.868750
								CHANNELS 3 Xrotation Yrotation Zrotation
								JOINT LeftShoulder_split
								{
									OFFSET 8.476499 7.247704 -3.868750
									CHANNELS 3 Xrotation Yrotation Zrotation
									JOINT LeftArm
									{
										OFFSET 9.308998 -2.777710 0.208600
										CHANNELS 3 Xrotation Yrotation Zrotation
										JOINT LeftForeArm
										{
											OFFSET 29.972298 0.000000 0.000000
											CHANNELS 3 Xrotation Yrotation Zrotation
											JOINT LeftHand
											{
												OFFSET 26.026505 0.000000 0.000000
												CHANNELS 3 Xrotation Yrotation Zrotation
												End Site
												{
													OFFSET 0 0 0
												}
											}
										}
									}
								}
							}
						}
						JOINT RightShoulder_virtual
						{
							OFFSET 0.000000 0.000000 0.000000
							CHANNELS 3 Xrotation Yrotation Zrotation
							JOINT RightShoulder
							{
								OFFSET -7.570500 7.247704 -3.868750
								CHANNELS 3 Xrotation Yrotation Zrotation
								JOINT RightShoulder_split
								{
									OFFSET -7.570500 7.247704 -3.868750
									CHANNELS 3 Xrotation Yrotation Zrotation
									JOINT RightArm
									{
										OFFSET -9.308998 -2.777710 0.208500
										CHANNELS 3 Xrotation Yrotation Zrotation
										JOINT RightForeArm
										{
											OFFSET -29.972300 0.000000 0.000000
											CHANNELS 3 Xrotation Yrotation Zrotation
											JOINT RightHand
											{
												OFFSET -26.026505 0.000000 0.000000
												CHANNELS 3 Xrotation Yrotation Zrotation
												End Site
												{
													OFFSET 0 0 0
												}
											}
										}
									}
								}
							}
						}
					}
				}
			}
		}
	}
}
MOTION
Frames: 4
Frame Time: 0.03333333
2.900047 77.793518 5.970345 0.000000 0.000000 0.000000 9.768564 -70.854210 5.278153 -24.373856 49.417149 42.708777 56.336599 6.247053 -7.595707 -34.516255 9.794606 0.935713 -3.700902 4.008149 -9.566007 0.000000 0.000000 0.000000 9.768564 -70.854210 5.278153 -27.559006 5.149029 -26.546898 31.819307 5.904244 -1.429375 -9.367314 0.254812 30.891091 0.720686 -1.305607 3.347824 0.000000 0.000000 0.000000 9.768564 -70.854210 5.278153 9.008220 -7.990806 8.994832 1.343973 -10.966280 5.954102 0.000000 0.000000 0.000000 0.000000 0.000000 0.000000 -9.901236 -11.269436 5.321776 0.134413 45.330948 6.318227 22.021641 26.410070 -8.269528 0.000000 0.000000 0.000000 -9.901236 -11.269436 5.321776 3.599835 -19.919955 18.035097 0.000000 0.000000 0.000000 -10.637665 -13.952738 -8.700979 -0.024142 -25.657278 -5.260098 0.000000 0.000000 0.000000 -9.901236 -11.269436 5.321776 2.423630 -14.507469 8.997712 0.000000 0.000000 0.000000 -48.645635 -3.342010 -18.386948 -4.067763 37.429006 6.860108 0.000000 0.000000 0.000000 
1.311062 78.877625 6.947216 0.000000 0.000000 0.000000 3.859673 -65.884230 -0.078629 -20.031022 47.887307 38.456581 53.564734 7.034326 -6.340296 -35.055137 9.511489 3.571566 -1.803473 3.939511 -9.476681 0.000000 0.000000 0.000000 3.859673 -65.884230 -0.078629 -20.177958 3.729557 -28.539283 32.564921 4.280647 0.518747 -15.630060 -3.328244 27.694759 1.601737 -2.595629 4.658269 0.000000 0.000000 0.000000 3.859673 -65.884230 -0.078629 8.206903 -8.182211 8.792274 -0.190738 -11.250300 6.028638 0.000000 0.000000 0.000000 0.000000 0.000000 0.000000 -11.447050 -11.562242 5.338305 3.252613 40.080308 6.930924 20.046160 25.136471 -4.753818 0.000000 0.000000 0.000000 -11.447050 -11.562242 5.338305 7.036032 -21.717442 28.304176 0.000000 0.000000 0.000000 -17.434022 -22.035022 -5.063774 -0.024463 -18.120270 -4.741185 0.000000 0.000000 0.000000 -11.447050 -11.562242 5.338305 0.930708 -15.187703 4.991299 0.000000 0.000000 0.000000 -54.595218 -4.695028 -21.803106 -1.943043 39.705471 7.057027 0.000000 0.000000 0.000000 
-0.158572 79.978188 8.128662 0.000000 0.000000 0.000000 -2.724215 -59.956090 -5.006039 -14.778905 46.980322 35.813175 50.115564 4.361341 -6.733981 -33.757527 9.120494 4.941196 -0.812996 4.650535 -10.063381 0.000000 0.000000 0.000000 -2.724215 -59.956090 -5.006039 -10.452726 2.901758 -31.115453 33.531219 0.574540 4.276577 -19.983918 -6.800254 21.710455 0.868989 -3.764600 5.595895 0.000000 0.000000 0.000000 -2.724215 -59.956090 -5.006039 7.505416 -8.226826 8.168865 -1.527755 -11.209392 5.298610 0.000000 0.000000 0.000000 0.000000 0.000000 0.000000 -12.782776 -11.382101 4.629935 8.338197 34.560388 6.887039 17.862389 23.738217 -2.470278 0.000000 0.000000 0.000000 -12.782776 -11.382101 4.629935 8.584869 -21.755787 33.610152 0.000000 0.000000 0.000000 -27.651766 -28.364616 -2.405155 -0.026666 -18.419760 -2.358916 0.000000 0.000000 0.000000 -12.782776 -11.382101 4.629935 -0.667858 -15.637510 0.241172 0.000000 0.000000 0.000000 -60.363545 -5.259266 -25.202672 0.541717 42.083234 7.030211 0.000000 0.000000 0.000000 
-1.244920 81.371597 10.509811 0.000000 0.000000 0.000000 -4.850832 -54.299604 -5.853414 -8.645467 47.269926 32.206705 44.588797 2.077618 -7.230535 -32.194715 9.121070 2.233401 0.266508 4.666140 -9.950929 0.000000 0.000000 0.000000 -4.850832 -54.299604 -5.853414 -1.608660 1.418612 -33.908273 32.084933 -5.201967 9.916448 -16.591383 -9.423582 14.501882 -1.235241 -5.684813 6.568045 0.000000 0.000000 0.000000 -4.850832 -54.299604 -5.853414 6.442174 -8.221780 7.504991 -3.644120 -11.072144 4.108839 0.000000 0.000000 0.000000 0.000000 0.000000 0.000000 -14.890641 -11.019321 3.490230 14.481072 29.410433 6.151360 18.077515 22.277697 -0.710741 0.000000 0.000000 0.000000 -14.890641 -11.019321 3.490230 7.074326 -18.434160 38.400536 0.000000 0.000000 0.000000 -38.084657 -35.687984 -5.573868 -0.028794 -17.900203 1.555100 0.000000 0.000000 0.000000 -14.890641 -11.019321 3.490230 -2.360063 -15.858980 -5.167574 0.000000 0.000000 0.000000 -65.467985 -4.894192 -27.307861 2.380893 44.448566 6.818859 0.000000 0.000000 0.000000 
